<svg width="100" height="100" viewBox="0 0 100 100" xmlns="http://www.w3.org/2000/svg">
    <g stroke="#545454" stroke-width="2.5">
        <line x1="50" y1="15" x2="80" y2="32.5" />
        <line x1="80" y1="32.5" x2="80" y2="67.5" />
        <line x1="80" y1="67.5" x2="50" y2="85" />
        <line x1="50" y1="85" x2="20" y2="67.5" />
        <line x1="20" y1="67.5" x2="20" y2="32.5" />
        <line x1="20" y1="32.5" x2="50" y2="15" />

        <line x1="50" y1="50" x2="50" y2="15" />
        <line x1="50" y1="50" x2="80" y2="32.5" />
        <line x1="50" y1="50" x2="80" y2="67.5" />
        <line x1="50" y1="50" x2="50" y2="85" />
        <line x1="50" y1="50" x2="20" y2="67.5" />
        <line x1="50" y1="50" x2="20" y2="32.5" />

        <line x1="20" y1="32.5" x2="80" y2="32.5" />
        <line x1="20" y1="67.5" x2="80" y2="67.5" />
        <line x1="50" y1="15" x2="20" y2="67.5" />
        <line x1="50" y1="15" x2="80" y2="67.5" />
        <line x1="50" y1="85" x2="20" y2="32.5" />
        <line x1="50" y1="85" x2="80" y2="32.5" />
    </g>

    <g fill="#A0A0A0">
        <circle cx="50" cy="15" r="4" />
        <circle cx="80" cy="32.5" r="4" />
        <circle cx="80" cy="67.5" r="4" />
        <circle cx="50" cy="85" r="4" />
        <circle cx="20" cy="67.5" r="4" />
        <circle cx="20" cy="32.5" r="4" />
        <circle cx="50" cy="50" r="5" /> </g>
</svg>